<svg xmlns="http://www.w3.org/2000/svg" viewBox="0 0 100 100" preserveAspectRatio="xMidYMid" style="shape-rendering: auto; display: block; background: transparent;" width="88" height="88" xmlns:xlink="http://www.w3.org/1999/xlink"><g><g transform="rotate(0 50 50)">
  <rect fill="#000000" height="12" width="53" ry="6" rx="26.5" y="8" x="23.5">
    <animate repeatCount="indefinite" begin="-0.31285551763367464s" dur="0.3412969283276451s" keyTimes="0;1" values="1;0" attributeName="opacity"></animate>
  </rect>
</g><g transform="rotate(30 50 50)">
  <rect fill="#f47e60" height="12" width="53" ry="6" rx="26.5" y="8" x="23.5">
    <animate repeatCount="indefinite" begin="-0.28441410693970426s" dur="0.3412969283276451s" keyTimes="0;1" values="1;0" attributeName="opacity"></animate>
  </rect>
</g><g transform="rotate(60 50 50)">
  <rect fill="#f8b26a" height="12" width="53" ry="6" rx="26.5" y="8" x="23.5">
    <animate repeatCount="indefinite" begin="-0.2559726962457338s" dur="0.3412969283276451s" keyTimes="0;1" values="1;0" attributeName="opacity"></animate>
  </rect>
</g><g transform="rotate(90 50 50)">
  <rect fill="#abbd81" height="12" width="53" ry="6" rx="26.5" y="8" x="23.5">
    <animate repeatCount="indefinite" begin="-0.22753128555176338s" dur="0.3412969283276451s" keyTimes="0;1" values="1;0" attributeName="opacity"></animate>
  </rect>
</g><g transform="rotate(120 50 50)">
  <rect fill="#849b87" height="12" width="53" ry="6" rx="26.5" y="8" x="23.5">
    <animate repeatCount="indefinite" begin="-0.19908987485779298s" dur="0.3412969283276451s" keyTimes="0;1" values="1;0" attributeName="opacity"></animate>
  </rect>
</g><g transform="rotate(150 50 50)">
  <rect fill="#6492ac" height="12" width="53" ry="6" rx="26.5" y="8" x="23.5">
    <animate repeatCount="indefinite" begin="-0.17064846416382254s" dur="0.3412969283276451s" keyTimes="0;1" values="1;0" attributeName="opacity"></animate>
  </rect>
</g><g transform="rotate(180 50 50)">
  <rect fill="#637cb5" height="12" width="53" ry="6" rx="26.5" y="8" x="23.5">
    <animate repeatCount="indefinite" begin="-0.14220705346985213s" dur="0.3412969283276451s" keyTimes="0;1" values="1;0" attributeName="opacity"></animate>
  </rect>
</g><g transform="rotate(210 50 50)">
  <rect fill="#6a63b6" height="12" width="53" ry="6" rx="26.5" y="8" x="23.5">
    <animate repeatCount="indefinite" begin="-0.11376564277588169s" dur="0.3412969283276451s" keyTimes="0;1" values="1;0" attributeName="opacity"></animate>
  </rect>
</g><g transform="rotate(240 50 50)">
  <rect fill="#000000" height="12" width="53" ry="6" rx="26.5" y="8" x="23.5">
    <animate repeatCount="indefinite" begin="-0.08532423208191127s" dur="0.3412969283276451s" keyTimes="0;1" values="1;0" attributeName="opacity"></animate>
  </rect>
</g><g transform="rotate(270 50 50)">
  <rect fill="#f47e60" height="12" width="53" ry="6" rx="26.5" y="8" x="23.5">
    <animate repeatCount="indefinite" begin="-0.056882821387940846s" dur="0.3412969283276451s" keyTimes="0;1" values="1;0" attributeName="opacity"></animate>
  </rect>
</g><g transform="rotate(300 50 50)">
  <rect fill="#f8b26a" height="12" width="53" ry="6" rx="26.5" y="8" x="23.5">
    <animate repeatCount="indefinite" begin="-0.028441410693970423s" dur="0.3412969283276451s" keyTimes="0;1" values="1;0" attributeName="opacity"></animate>
  </rect>
</g><g transform="rotate(330 50 50)">
  <rect fill="#abbd81" height="12" width="53" ry="6" rx="26.5" y="8" x="23.5">
    <animate repeatCount="indefinite" begin="0s" dur="0.3412969283276451s" keyTimes="0;1" values="1;0" attributeName="opacity"></animate>
  </rect>
</g><g></g></g><!-- [ldio] generated by https://loading.io --></svg>